-
http:// www . torrentkit. com        
http:// www .torrentkit. com       the fast  and The Hottest Private Tracker on the net

Please Seed back to make the speed Faster!!!

and don't forget to visit      ...... www .torrentkit .com..........
-[align=center][IMG]http://img145.imageshack.us/img145/3059/guliverstravelscover.jpg[/IMG]

** ** ** ** ** ** ** ** ** 

IMDB........ http://www.imdb.com/title/tt1320261/

** ** ** ** ** ** ** ** ** 

[b]PLOT[/b]

Travel writer Lemuel Gulliver takes an assignment in Bermuda, but ends up on the island of Liliput, where he towers over its tiny citizens. 

** ** ** ** ** ** ** ** ** 

[b]AVI Information[/b]

Complete name : Gulliver's.Travels.2010 480 BRRip Xvid AC3 - PRESTiGE.avi 
Format : AVI 
Format/Info : Audio Video Interleave 
Format profile : OpenDML 
Format settings : rec 
File size : 1.75 GiB 
Duration : 1h 24mn 
Overall bit rate : 2 959 Kbps 
Source: Gulliver's.Travels.2010.BluRay.720p.DTS.x264-CHD
Encoder: Twisted

[b]Video Stream[/b]

ID : 0 
Format : MPEG-4 Visual 
Format profile : Advanced Simple@L5 
Format settings, BVOP : 2 
Format settings, QPel : No 
Format settings, GMC : No warppoints 
Format settings, Matrix : Default (MPEG) 
Codec ID : XVID 
Codec ID/Hint : XviD 
Duration : 1h 24mn 
Bit rate : 2 506 Kbps 
Width : 720 pixels 
Height : 304 pixels 
Display aspect ratio : 2.35:1 
Frame rate : 23.976 fps 
Color space : YUV 
Chroma subsampling : 4:2:0 
Bit depth : 8 bits 
Scan type : Progressive 
Compression mode : Lossy 
Bits/(Pixel*Frame) : 0.477 
Stream size : 1.48 GiB (85%) 
Writing library : XviD 62 


[b]Audio Stream[/b]

ID : 1 
Format : AC-3 
Format/Info : Audio Coding 3 
Mode extension : CM (complete main) 
Codec ID : 2000 
Duration : 1h 24mn 
Bit rate mode : Constant 
Bit rate : 448 Kbps 
Channel(s) : 6 channels 
Channel positions : Front: L C R, Side: L R, LFE 
Sampling rate : 48.0 KHz 
Bit depth : 16 bits 
Compression mode : Lossy 
Stream size : 271 MiB (15%) 
Alignment : Aligned on interleaves 
Interleave, duration : 64 ms (1.53 video frames) 
Interleave, preload duration : 192 ms 
Title : T2_Audio - English 


** ** ** ** ** ** ** ** ** 

[b]Screens[/b]

[IMG]http://img695.imageshack.us/img695/2921/pic11y.png[/IMG]
[IMG]http://img9.imageshack.us/img9/888/pic12t.png[/IMG]
[IMG]http://img838.imageshack.us/img838/3250/pic13.png[/IMG]
[IMG]http://img571.imageshack.us/img571/9707/pic14a.png[/IMG]
[IMG]http://img641.imageshack.us/img641/8948/pic15l.png[/IMG]
[IMG]http://img847.imageshack.us/img847/1263/pic16.png[/IMG]
[IMG]http://img833.imageshack.us/img833/3350/pic17.png[/IMG]
[IMG]http://img824.imageshack.us/img824/5938/pic18e.png[/IMG]

** ** ** ** ** ** ** ** **

Note

PRESTiGE - IS LOOKING FOR?: CAMMER'S, AUDIO SUPPLIERS, SYNCER'S, RETAIL SUPPLIER'S, SILVER'S, SCREENER'S, LINE CAPPER'S

ENCODER'S - ANYTHING AT ALL EMAIL US AT..... prestige@twistedtorrents.com

** ** ** ** ** ** ** ** **

Greets Are Flying Out To:

[b]BmB,HiTM4N,BIGGUY,Demedic,DiLLoN,Imagine,CTFX,Jammo
Encoders Past And Present[/b]

** ** ** ** ** ** ** ** ** 

PRESTiGE is the level of respect at which one is regarded by others....RIzE Above Or Sink Below

[IMG]http://leetleech.org/images/83508160282003703104.png[/IMG][/align]